<svg width="63" height="16" viewBox="0 0 63 16" fill="none" xmlns="http://www.w3.org/2000/svg">
<path d="M6.57806 1.536H5.63206C5.61739 2.47467 5.60273 3.42067 5.58806 4.374C5.58806 5.32733 5.58806 6.28067 5.58806 7.234V8.202H6.66606C7.82473 8.202 8.66806 7.88667 9.19606 7.256C9.72406 6.62533 9.98806 5.79667 9.98806 4.77C9.98806 3.72867 9.70206 2.92933 9.13006 2.372C8.57273 1.81467 7.72206 1.536 6.57806 1.536ZM0.858061 1.448V0.413999H6.79806C8.86606 0.413999 10.3767 0.817332 11.3301 1.624C12.2981 2.416 12.7821 3.46467 12.7821 4.77C12.7821 5.59133 12.5767 6.354 12.1661 7.058C11.7701 7.74733 11.1101 8.29733 10.1861 8.708C9.27673 9.11867 8.04473 9.324 6.49006 9.324H5.58806C5.58806 10.028 5.58806 10.7467 5.58806 11.48C5.60273 12.2133 5.61739 12.9687 5.63206 13.746L7.63406 13.966V15H0.858061V13.966L2.70606 13.768C2.73539 12.8587 2.75006 11.9347 2.75006 10.996C2.75006 10.0573 2.75006 9.11867 2.75006 8.18V7.234C2.75006 6.31 2.75006 5.386 2.75006 4.462C2.75006 3.52333 2.73539 2.58467 2.70606 1.646L0.858061 1.448ZM22.9457 1.448V0.413999H28.2257V1.448L26.3557 1.668V8.884C26.3557 10.424 26.1211 11.6707 25.6517 12.624C25.1971 13.5773 24.5591 14.274 23.7377 14.714C22.9164 15.154 21.9484 15.374 20.8337 15.374C19.7631 15.374 18.8171 15.176 17.9957 14.78C17.1744 14.384 16.5291 13.7533 16.0597 12.888C15.5904 12.0227 15.3557 10.8933 15.3557 9.5V7.102C15.3557 6.19267 15.3557 5.28333 15.3557 4.374C15.3557 3.45 15.3411 2.53333 15.3117 1.624L13.5957 1.448V0.413999H20.2837V1.448L18.2597 1.668C18.2451 2.56267 18.2304 3.46467 18.2157 4.374C18.2157 5.28333 18.2157 6.19267 18.2157 7.102V8.818C18.2157 10.006 18.3477 10.952 18.6117 11.656C18.8757 12.3453 19.2571 12.844 19.7557 13.152C20.2691 13.4453 20.8851 13.592 21.6037 13.592C22.7331 13.592 23.5911 13.218 24.1777 12.47C24.7791 11.7073 25.0797 10.4167 25.0797 8.598V1.69L22.9457 1.448ZM29.2552 15V13.966L31.3012 13.68V1.69L29.3432 1.448V0.413999H34.2492L38.5392 11.348L42.5872 0.413999H47.4932V1.448L45.6892 1.646C45.6746 2.55533 45.6599 3.47933 45.6452 4.418C45.6452 5.342 45.6452 6.28067 45.6452 7.234V8.18C45.6452 9.11867 45.6452 10.0573 45.6452 10.996C45.6599 11.92 45.6746 12.844 45.6892 13.768L47.5372 13.966V15H41.0472V13.966L42.7852 13.746C42.8146 12.8367 42.8292 11.9347 42.8292 11.04C42.8292 10.1307 42.8292 9.258 42.8292 8.422L42.8512 3.186L38.4952 15H37.0872L32.4672 3.186L32.5772 7.498V13.68L34.4032 13.966V15H29.2552ZM55.0044 3.252L52.9804 9.346H57.0064L55.0044 3.252ZM48.5584 15V13.966L50.3624 13.702L54.9604 0.325999H56.7644L61.3624 13.812L62.8584 13.988V15H56.5004V13.988L58.4364 13.746L57.3804 10.49H52.5844L51.5284 13.68L53.4424 13.966V15H48.5584Z" fill="#1A0A03"/>
</svg>
