<svg width="79" height="68" viewBox="0 0 79 68" fill="none" xmlns="http://www.w3.org/2000/svg">
<path d="M74.3068 40.1289C76.1909 38.3724 78.3263 36.3918 78.3263 33.7633C78.3263 31.1349 76.1909 29.1542 74.3068 27.3977C73.2249 26.5465 72.3344 25.5192 71.6829 24.3707C71.4328 23.04 71.4659 21.6792 71.7806 20.3595C72.1295 17.9926 72.5343 15.3144 70.8734 13.2714C69.1986 11.2035 66.198 10.7177 63.5601 10.2942C62.0734 10.1614 60.6286 9.77662 59.3033 9.16056C58.2537 8.24272 57.4146 7.15105 56.833 5.94662C55.549 3.81646 54.0975 1.39978 51.348 0.602531C48.6963 -0.169809 45.9887 0.988701 43.6021 2.01018C42.2701 2.70263 40.8011 3.15942 39.2755 3.35555C37.7498 3.15942 36.2808 2.70263 34.9489 2.01018C32.5623 0.988701 29.8547 -0.169809 27.203 0.602531C24.4535 1.39978 23.002 3.81646 21.718 5.94662C21.1364 7.15105 20.2973 8.24272 19.2476 9.16056C17.9266 9.77499 16.4868 10.1597 15.0048 10.2942C12.353 10.7177 9.35235 11.2035 7.67754 13.2714C6.0167 15.3144 6.42144 17.9926 6.77036 20.3595C7.08508 21.6792 7.11822 23.04 6.86806 24.3707C6.21659 25.5192 5.32612 26.5465 4.2442 27.3977C2.36004 29.1542 0.22467 31.1349 0.22467 33.7633C0.22467 36.3918 2.36004 38.3724 4.2442 40.1289C5.32612 40.9802 6.21659 42.0075 6.86806 43.156C7.11822 44.4866 7.08508 45.8475 6.77036 47.1672C6.42144 49.534 6.0167 52.2123 7.67754 54.2552C9.35235 56.3231 12.353 56.809 14.9909 57.2325C16.4776 57.3653 17.9224 57.75 19.2476 58.3661C20.2928 59.2873 21.1312 60.3781 21.718 61.58C23.002 63.7102 24.4535 66.1269 27.203 66.9241C29.8547 67.6965 32.5623 66.5379 34.9489 65.5165C36.2808 64.824 37.7498 64.3672 39.2755 64.1711C40.8011 64.3672 42.2701 64.824 43.6021 65.5165C45.4262 66.4462 47.4548 67.0115 49.5476 67.1733C50.1588 67.1759 50.7665 67.0918 51.348 66.9241C54.0975 66.1269 55.549 63.7102 56.833 61.58C57.4146 60.3756 58.2537 59.2839 59.3033 58.3661C60.6244 57.7516 62.0642 57.367 63.5462 57.2325C66.198 56.809 69.1986 56.3231 70.8734 54.2552C72.5343 52.2123 72.1295 49.534 71.7806 47.1672C71.4659 45.8475 71.4328 44.4866 71.6829 43.156C72.3344 42.0075 73.2249 40.9802 74.3068 40.1289V40.1289ZM71.2782 37.5503C69.7262 38.7777 68.5048 40.3022 67.7053 42.0099C67.207 43.8665 67.1831 45.7995 67.6355 47.6654C67.9007 49.4219 68.1658 51.2282 67.482 52.0628C66.7981 52.8974 64.7604 53.2338 62.8065 53.5576C60.6927 53.7517 58.653 54.36 56.833 55.339C55.2458 56.573 53.9829 58.1042 53.1345 59.8236C52.1854 61.4056 51.2085 63.0375 50.0501 63.3738C49.0033 63.6853 47.175 62.9005 45.4164 62.1406C43.5352 61.1752 41.4383 60.5924 39.2755 60.434C37.1127 60.5924 35.0158 61.1752 33.1346 62.1406C31.376 62.9005 29.5477 63.6728 28.5009 63.3738C27.3425 63.0375 26.3656 61.4056 25.4165 59.8236C24.568 58.1042 23.3052 56.573 21.718 55.339C19.898 54.36 17.8583 53.7517 15.7445 53.5576C13.7906 53.2338 11.7529 52.9099 11.069 52.0628C10.3851 51.2157 10.6503 49.4219 10.9155 47.6654C11.3679 45.7995 11.344 43.8665 10.8457 42.0099C10.0462 40.3022 8.8248 38.7777 7.2728 37.5503C5.86317 36.2423 4.41168 34.8845 4.41168 33.7633C4.41168 32.6422 5.86317 31.2844 7.2728 29.9764C8.8248 28.7489 10.0462 27.2244 10.8457 25.5167C11.344 23.6601 11.3679 21.7272 10.9155 19.8612C10.6503 18.1048 10.3851 16.2985 11.069 15.4638C11.7529 14.6292 13.7906 14.2929 15.7445 13.969C17.8583 13.7749 19.898 13.1666 21.718 12.1876C23.3052 10.9537 24.568 9.42244 25.4165 7.70308C26.3656 6.12102 27.3425 4.48914 28.5009 4.1528C29.5477 3.84138 31.376 4.62617 33.1346 5.38606C35.0158 6.35147 37.1127 6.93422 39.2755 7.09268C41.4383 6.93422 43.5352 6.35147 45.4164 5.38606C47.175 4.62617 49.0033 3.85383 50.0501 4.1528C51.2085 4.48914 52.1854 6.12102 53.1345 7.70308C53.9829 9.42244 55.2458 10.9537 56.833 12.1876C58.653 13.1666 60.6927 13.7749 62.8065 13.969C64.7604 14.2929 66.7981 14.6168 67.482 15.4638C68.1658 16.3109 67.9007 18.1048 67.6355 19.8612C67.1831 21.7272 67.207 23.6601 67.7053 25.5167C68.5048 27.2244 69.7262 28.7489 71.2782 29.9764C72.6878 31.2844 74.1393 32.6422 74.1393 33.7633C74.1393 34.8845 72.6878 36.2423 71.2782 37.5503ZM39.2755 9.22284C33.8376 9.22284 28.5217 10.6621 24.0003 13.3587C19.4788 16.0552 15.9547 19.8879 13.8737 24.3721C11.7927 28.8563 11.2482 33.7905 12.3091 38.5509C13.37 43.3113 15.9886 47.684 19.8338 51.1161C23.679 54.5481 28.5781 56.8854 33.9115 57.8323C39.245 58.7792 44.7733 58.2932 49.7973 56.4358C54.8213 54.5784 59.1153 51.4329 62.1365 47.3973C65.1576 43.3616 66.7702 38.617 66.7702 33.7633C66.7606 27.2574 63.8607 21.0204 58.7066 16.42C53.5524 11.8197 46.5646 9.23141 39.2755 9.22284V9.22284ZM51.5853 31.7577L46.4074 36.1675L47.5239 42.4833C47.5655 42.7123 47.5341 42.9472 47.4333 43.1611C47.3326 43.375 47.1666 43.5593 46.9542 43.693C46.7418 43.8268 46.4915 43.9046 46.232 43.9175C45.9724 43.9305 45.714 43.8781 45.4862 43.7664L39.1778 40.7268L32.7996 43.6293C32.5677 43.7355 32.3072 43.7816 32.0475 43.7624C31.7879 43.7432 31.5394 43.6595 31.3302 43.5208C31.1211 43.3821 30.9596 43.1939 30.8641 42.9775C30.7686 42.7611 30.7429 42.5252 30.7898 42.2964L32.0878 36.0056L27.0215 31.4837C26.8407 31.3186 26.7148 31.112 26.6579 30.8868C26.601 30.6616 26.6153 30.4267 26.6993 30.2084C26.7833 29.99 26.9335 29.7968 27.1334 29.6502C27.3332 29.5037 27.5747 29.4096 27.831 29.3784L34.935 28.5313L38.1729 22.8384C38.2898 22.6289 38.4704 22.4531 38.6941 22.331C38.9178 22.2089 39.1756 22.1455 39.4378 22.1481C39.7 22.1507 39.956 22.2192 40.1767 22.3457C40.3973 22.4722 40.5735 22.6516 40.6851 22.8634L43.7696 28.631L50.8456 29.6276C51.1018 29.6648 51.3412 29.7651 51.5371 29.9172C51.7329 30.0692 51.8774 30.267 51.9542 30.4883C52.0311 30.7096 52.0373 30.9456 51.9721 31.1698C51.9069 31.3941 51.773 31.5977 51.5853 31.7577Z" fill="#1265E1"/>
</svg>
