<svg width="76" height="67" viewBox="0 0 76 67" fill="none" xmlns="http://www.w3.org/2000/svg">
<path d="M75.3835 27.2867C74.0401 19.9906 69.925 16.4375 66.8752 14.766L66.4177 14.7031C66.4177 14.7031 60.1 12.6482 54.8489 23.1673C59.0333 26.3073 59.7541 33.2354 58.1275 38.9586C56.0021 46.4221 46.4457 50.7148 46.4457 50.7148L43.662 48.1482L35.3133 66.5274H58.6888L55.905 63.0503C55.905 63.0503 65.1807 57.4221 69.2626 52.7852C73.3432 48.1482 77.61 39.3741 75.3835 27.2867Z" fill="#5F2EEA"/>
<path d="M22.6991 45.5817C5.4458 26.0438 31.2327 15.6956 31.2327 15.6956L33.4578 18.6765L41.6216 0.131042H18.2448L21.3983 3.60816C17.1316 5.18111 11.1038 10.4793 11.1038 10.4793C11.1038 10.4793 -0.954362 21.408 0.99149 37.0557C2.94 52.7033 13.6069 53.7788 13.6069 53.7788L34.5697 53.2826C29.2828 52.9514 22.6991 45.5817 22.6991 45.5817Z" fill="#5F2EEA"/>
<path d="M42.5473 13.3783C36.6126 13.8745 33.8289 21.6573 33.8289 21.6573C29.5515 34.0035 26.249 40.5577 24.601 43.4531L24.3231 43.9695C28.0698 48.6931 32.1304 51.014 36.5289 52.3115C39.5215 52.5098 43.9399 42.1888 43.9399 42.1888C47.6813 33.4681 49.538 29.6052 52.8458 22.0717C53.3818 20.8655 55.9914 13.7985 61.8409 13.3344C57.9372 13.2228 47.3421 12.977 42.5473 13.3783Z" fill="#5F2EEA"/>
</svg>
