<svg width="84" height="75" viewBox="0 0 84 75" fill="none" xmlns="http://www.w3.org/2000/svg">
<path fill-rule="evenodd" clip-rule="evenodd" d="M41.7146 0.343872C64.5612 0.343872 83.0262 16.8249 83.0262 37.2168C83.0262 57.6086 64.5612 74.0896 41.7146 74.0896C18.868 74.0896 0.402893 57.6086 0.402893 37.2168C0.402893 16.8249 18.868 0.343872 41.7146 0.343872ZM33.8904 29.9539C36.3941 27.4399 40.4627 26.6018 44.5313 27.4399C50.4776 28.8366 53.9203 34.4234 52.3554 39.4515L57.6759 42.2449L54.5462 46.9937L49.5387 44.2003C46.722 46.7143 42.6535 47.8317 38.5849 46.7143C32.6385 45.3176 29.1959 40.0102 30.7607 34.7027L12.2956 25.2051L15.4253 20.4564L33.8904 29.9539ZM36.7071 35.8201C36.0812 38.3341 37.646 40.8482 40.1497 41.4069C42.9664 42.2449 45.7831 40.8482 46.4091 38.3341C47.348 35.8201 45.7831 33.306 42.9664 32.7473C40.1497 32.1886 37.333 33.5853 36.7071 35.8201ZM41.7146 8.72407C59.2407 8.72407 73.6372 21.2944 73.6372 37.2168C73.6372 52.8598 59.2407 65.7094 41.7146 65.7094V60.6813C56.1111 60.6813 68.0038 50.0664 68.0038 37.2168C68.0038 24.0878 56.1111 13.7522 41.7146 13.7522V8.72407Z" fill="#AA21EA"/>
</svg>
